<svg width="46" height="46" viewBox="0 0 46 46" fill="none" xmlns="http://www.w3.org/2000/svg">
<path d="M22.0919 32.175C23.2294 33.3125 25.0815 33.3125 26.219 32.175L35.2753 23.1187C36.4128 21.9812 36.4128 20.1292 35.2753 18.9917L23.9148 7.63123C23.3609 7.09063 22.618 6.78722 21.844 6.7854L12.7878 6.7854C11.1836 6.7854 9.87109 8.0979 9.87109 9.70207V18.7583C9.87109 19.5312 10.1773 20.275 10.7315 20.8146L22.0919 32.175ZM16.069 11.1604C16.5525 11.1604 17.0161 11.3525 17.358 11.6943C17.6999 12.0362 17.8919 12.4998 17.8919 12.9833C17.8919 13.4668 17.6999 13.9305 17.358 14.2723C17.0161 14.6142 16.5525 14.8062 16.069 14.8062C15.5855 14.8062 15.1219 14.6142 14.78 14.2723C14.4382 13.9305 14.2461 13.4668 14.2461 12.9833C14.2461 12.4998 14.4382 12.0362 14.78 11.6943C15.1219 11.3525 15.5855 11.1604 16.069 11.1604Z" fill="#6C63FF"/>
<path d="M24.1482 36.3052L9.87109 22.0281V24.9447C9.87109 25.7177 10.1773 26.4614 10.7315 27.001L22.0919 38.3614C23.2294 39.4989 25.0815 39.4989 26.219 38.3614L35.2753 29.3052C36.4128 28.1677 36.4128 26.3156 35.2753 25.1781L24.1482 36.3052Z" fill="#6C63FF"/>
</svg>
