<svg width="46" height="46" viewBox="0 0 46 46" fill="none" xmlns="http://www.w3.org/2000/svg">
<path d="M38.75 11H7.25C6.78587 11 6.34075 11.1806 6.01256 11.5021C5.68437 11.8236 5.5 12.2596 5.5 12.7143V19.5714H7.06275C8.80575 19.5714 10.4227 20.7389 10.7028 22.424C10.788 22.9161 10.7627 23.4204 10.6285 23.9019C10.4943 24.3834 10.2544 24.8304 9.92565 25.2117C9.59689 25.593 9.18715 25.8994 8.72502 26.1096C8.26289 26.3198 7.75951 26.4286 7.25 26.4286H5.5V33.2857C5.5 33.7404 5.68437 34.1764 6.01256 34.4979C6.34075 34.8194 6.78587 35 7.25 35H38.75C39.2141 35 39.6592 34.8194 39.9874 34.4979C40.3156 34.1764 40.5 33.7404 40.5 33.2857V26.4286H38.75C38.2405 26.4286 37.7371 26.3198 37.275 26.1096C36.8129 25.8994 36.4031 25.593 36.0743 25.2117C35.7456 24.8304 35.5057 24.3834 35.3715 23.9019C35.2373 23.4204 35.212 22.9161 35.2973 22.424C35.5773 20.7389 37.1943 19.5714 38.9373 19.5714H40.5V12.7143C40.5 12.2596 40.3156 11.8236 39.9874 11.5021C39.6592 11.1806 39.2141 11 38.75 11ZM17.75 17.8571C18.2141 17.8571 18.6592 18.0378 18.9874 18.3592C19.3156 18.6807 19.5 19.1168 19.5 19.5714C19.5 20.0261 19.3156 20.4621 18.9874 20.7836C18.6592 21.1051 18.2141 21.2857 17.75 21.2857C17.2859 21.2857 16.8408 21.1051 16.5126 20.7836C16.1844 20.4621 16 20.0261 16 19.5714C16 19.1168 16.1844 18.6807 16.5126 18.3592C16.8408 18.0378 17.2859 17.8571 17.75 17.8571ZM16.35 28.8286L26.85 15.1143L29.65 17.1714L19.15 30.8857L16.35 28.8286ZM28.25 28.1429C27.7859 28.1429 27.3408 27.9622 27.0126 27.6408C26.6844 27.3193 26.5 26.8832 26.5 26.4286C26.5 25.9739 26.6844 25.5379 27.0126 25.2164C27.3408 24.8949 27.7859 24.7143 28.25 24.7143C28.7141 24.7143 29.1592 24.8949 29.4874 25.2164C29.8156 25.5379 30 25.9739 30 26.4286C30 26.8832 29.8156 27.3193 29.4874 27.6408C29.1592 27.9622 28.7141 28.1429 28.25 28.1429Z" fill="#6C63FF"/>
</svg>
