<svg width="46" height="46" viewBox="0 0 46 46" fill="none" xmlns="http://www.w3.org/2000/svg">
<path d="M21.9056 8.41663C15.7529 8.42246 12.5708 8.53329 10.551 10.5516C8.53268 12.5729 8.42185 15.7535 8.41602 21.9062H15.5823C15.0579 21.2517 14.6813 20.4916 14.4783 19.6779C13.6952 16.5395 16.5389 13.6958 19.6773 14.4789C20.5114 14.6875 21.2668 15.071 21.9056 15.5829V8.41663ZM8.41602 24.0937C8.42185 30.245 8.53268 33.427 10.551 35.4468C12.5723 37.4666 15.7529 37.576 21.9056 37.5833V26.096C21.3304 27.2473 20.4458 28.2156 19.351 28.8923C18.2563 29.569 16.9947 29.9273 15.7077 29.927C15.4176 29.927 15.1394 29.8118 14.9343 29.6067C14.7292 29.4016 14.6139 29.1234 14.6139 28.8333C14.6139 28.5432 14.7292 28.265 14.9343 28.0599C15.1394 27.8548 15.4176 27.7395 15.7077 27.7395C16.7746 27.7395 17.8104 27.3796 18.6474 26.718C19.4845 26.0564 20.0739 25.1318 20.3204 24.0937H8.41602ZM24.0931 37.5833C30.2443 37.576 33.4264 37.4666 35.4462 35.4468C37.466 33.4285 37.5754 30.245 37.5827 24.0937H25.6783C25.9248 25.1318 26.5142 26.0564 27.3513 26.718C28.1883 27.3796 29.2241 27.7395 30.291 27.7395C30.5811 27.7395 30.8593 27.8548 31.0644 28.0599C31.2695 28.265 31.3848 28.5432 31.3848 28.8333C31.3848 29.1234 31.2695 29.4016 31.0644 29.6067C30.8593 29.8118 30.5811 29.927 30.291 29.927C29.004 29.9273 27.7424 29.569 26.6477 28.8923C25.5529 28.2156 24.6683 27.2473 24.0931 26.096V37.5833ZM37.5827 21.9062C37.5754 15.7535 37.466 12.5714 35.4462 10.5516C33.4279 8.53329 30.2443 8.42246 24.0931 8.41663V15.5829C24.7472 15.0587 25.5068 14.6821 26.32 14.4789C29.4598 13.6943 32.305 16.5381 31.5189 19.6779C31.3164 20.4915 30.9403 21.2516 30.4164 21.9062H37.5827Z" fill="#6C63FF"/>
<path d="M19.4213 17.0582C20.1531 17.2415 20.8029 17.665 21.2672 18.2613C21.7316 18.8576 21.9839 19.5925 21.9841 20.3491V22H20.3383C19.584 21.9998 18.8514 21.7467 18.257 21.2809C17.6626 20.8151 17.2404 20.1633 17.0577 19.4292C16.9765 19.1017 16.9811 18.7587 17.0711 18.4336C17.1611 18.1084 17.3334 17.8121 17.5713 17.5734C17.8092 17.3348 18.1046 17.1619 18.4287 17.0717C18.7529 16.9814 19.0948 16.9768 19.4213 17.0582ZM24.0158 20.3491V22H25.6616C27.2125 22 28.5657 20.9402 28.9422 19.4292C29.0235 19.1016 29.0189 18.7584 28.9289 18.4331C28.8388 18.1078 28.6664 17.8114 28.4283 17.5727C28.1902 17.334 27.8947 17.1612 27.5703 17.071C27.2459 16.9809 26.9038 16.9765 26.5772 17.0582C25.8457 17.2418 25.1963 17.6654 24.7322 18.2616C24.2681 18.8579 24.016 19.5926 24.0158 20.3491Z" fill="#6C63FF"/>
</svg>
