<svg width="46" height="46" viewBox="0 0 46 46" fill="none" xmlns="http://www.w3.org/2000/svg">
<path d="M33.3333 10H12.9167C11.3125 10 10 11.3125 10 12.9167V24.5833C10 27.8062 12.6104 30.4167 15.8333 30.4167H24.5833C27.8062 30.4167 30.4167 27.8062 30.4167 24.5833V20.2083H33.3333C34.1069 20.2083 34.8487 19.901 35.3957 19.3541C35.9427 18.8071 36.25 18.0652 36.25 17.2917V12.9167C36.25 11.3125 34.9375 10 33.3333 10ZM33.3333 17.2917H30.4167V12.9167H33.3333V17.2917ZM11.4583 33.3333H31.875C32.6771 33.3333 33.3333 33.9896 33.3333 34.7917C33.3333 35.5938 32.6771 36.25 31.875 36.25H11.4583C10.6562 36.25 10 35.5938 10 34.7917C10 33.9896 10.6562 33.3333 11.4583 33.3333Z" fill="#6C63FF"/>
</svg>
